# xmcd
#
# Track frame offsets: 
#        150
#        12845
#        27692
#        42435
#        59012
#        74810
#        94650
#        109350
#        127857
#        143042
#
# Disc length: 2073 seconds
#
# Revision: 0
# Processed by: cddbd v1.5.2PL0 Copyright (c) Steve Scherf et al.
# Submitted via: ExactAudioCopy v0.99pb5
#
DISCID=9508170a
DTITLE=Brenna Williams - Forever
DYEAR=2000
DGENRE=Country
TTITLE0=Shaina
TTITLE1=Forever
TTITLE2=Real Good News (acoustic)
TTITLE3=If Had Been Me
TTITLE4=I Don't Want You
TTITLE5=Rather Be
TTITLE6=Light At The End
TTITLE7=Real Good News
TTITLE8=Too Young To Know
TTITLE9=Right Where I Am
EXTD=
EXTT0=
EXTT1=
EXTT2=
EXTT3=
EXTT4=
EXTT5=
EXTT6=
EXTT7=
EXTT8=
EXTT9=
PLAYORDER=
